<?xml version="1.0" standalone="no"?>
<!DOCTYPE svg PUBLIC "-//W3C//DTD SVG 20010904//EN"
 "http://www.w3.org/TR/2001/REC-SVG-20010904/DTD/svg10.dtd">
<svg version="1.0" xmlns="http://www.w3.org/2000/svg"
 width="500.000000pt" height="500.000000pt" viewBox="0 0 500.000000 500.000000"
 preserveAspectRatio="xMidYMid meet">
<metadata>
Created by potrace 1.14, written by Peter Selinger 2001-2017
</metadata>
<g transform="translate(0.000000,500.000000) scale(0.100000,-0.100000)"
fill="#000000" stroke="none">
<path d="M0 2500 l0 -2500 2500 0 2500 0 0 2500 0 2500 -2500 0 -2500 0 0
-2500z m1260 675 l0 -145 -80 0 c-44 0 -80 -3 -80 -6 0 -26 225 -823 231 -817
4 5 66 251 139 548 73 297 135 546 138 553 3 9 52 12 196 12 l192 0 134 -552
c73 -304 135 -559 138 -567 4 -11 203 690 228 802 l6 27 -91 0 -91 0 0 145 0
145 670 0 670 0 0 -145 0 -145 -85 0 -85 0 0 -500 0 -500 179 0 c99 0 187 3
196 6 33 13 45 59 45 174 l0 110 170 0 170 0 0 -290 0 -290 -635 0 -636 0 3
143 3 142 83 3 82 3 0 499 0 500 -148 0 -147 0 -181 -642 -181 -643 -225 -3
-226 -2 -72 297 c-40 164 -94 385 -120 492 l-47 194 -117 -474 c-65 -261 -120
-482 -123 -491 -4 -17 -23 -18 -227 -18 l-223 0 -184 645 -184 644 -80 3 -80
3 -3 143 -3 142 341 0 340 0 0 -145z"/>
</g>
</svg>
